<?xml version="1.0" encoding="utf-8"?>
<!-- Generator: Adobe Illustrator 16.0.0, SVG Export Plug-In . SVG Version: 6.00 Build 0)  -->
<!DOCTYPE svg PUBLIC "-//W3C//DTD SVG 1.1//EN" "http://www.w3.org/Graphics/SVG/1.1/DTD/svg11.dtd">
<svg version="1.1" id="Layer_1" xmlns="http://www.w3.org/2000/svg" xmlns:xlink="http://www.w3.org/1999/xlink" x="0px" y="0px"
	 width="64px" height="64px" viewBox="224 224 64 64" enable-background="new 224 224 64 64" xml:space="preserve">
<path fill="#333333" d="M224.269,240.134c0,8.759,7.096,15.865,15.865,15.865C240.134,247.239,233.027,240.134,224.269,240.134z
	 M240.134,224.269c0,8.759,7.096,15.865,15.865,15.865C255.999,231.375,248.893,224.269,240.134,224.269z M224.269,271.865
	c8.762,0,15.865-7.104,15.865-15.866C231.372,255.999,224.269,263.1,224.269,271.865z M240.134,287.731
	c8.762,0,15.865-7.103,15.865-15.866C247.236,271.865,240.134,278.969,240.134,287.731z M271.865,224.269
	c-8.766,0-15.866,7.101-15.866,15.865C264.762,240.134,271.865,233.032,271.865,224.269z M271.865,287.731
	c0-8.761-7.107-15.866-15.866-15.866C255.999,280.623,263.094,287.731,271.865,287.731z M271.865,255.999
	c0,8.759,7.096,15.866,15.866,15.866C287.731,263.107,280.623,255.999,271.865,255.999z M255.999,240.134
	c0,8.759,7.095,15.865,15.866,15.865C271.865,247.239,264.758,240.134,255.999,240.134z M287.731,240.134
	c-8.765,0-15.866,7.102-15.866,15.865C280.629,255.999,287.731,248.897,287.731,240.134z M255.999,240.134
	c-8.763,0-15.865,7.102-15.865,15.865C248.896,255.999,255.999,248.897,255.999,240.134z M255.999,271.865
	c8.759,0,15.866-7.107,15.866-15.866C263.1,255.999,255.999,263.094,255.999,271.865z M240.134,255.999
	c0,8.759,7.102,15.866,15.865,15.866C255.999,263.1,248.897,255.999,240.134,255.999z"/>
</svg>
