<?xml version="1.0" encoding="utf-8"?>
<!-- Generator: Adobe Illustrator 16.0.0, SVG Export Plug-In . SVG Version: 6.00 Build 0)  -->
<!DOCTYPE svg PUBLIC "-//W3C//DTD SVG 1.1//EN" "http://www.w3.org/Graphics/SVG/1.1/DTD/svg11.dtd">
<svg version="1.1" id="Layer_1" xmlns="http://www.w3.org/2000/svg" xmlns:xlink="http://www.w3.org/1999/xlink" x="0px" y="0px"
	 width="64px" height="64px" viewBox="224 224 64 64" enable-background="new 224 224 64 64" xml:space="preserve">
<path fill="#FFFFFF" d="M223.983,239.992c0,8.838,7.16,16.008,16.009,16.008C239.992,247.162,232.821,239.992,223.983,239.992z
	 M239.992,223.983c0,8.838,7.16,16.009,16.008,16.009C256,231.153,248.83,223.983,239.992,223.983z M223.983,272.01
	c8.841,0,16.009-7.168,16.009-16.01C231.15,256,223.983,263.167,223.983,272.01z M239.992,288.018
	c8.841,0,16.008-7.166,16.008-16.008C247.159,272.01,239.992,279.176,239.992,288.018z M272.01,223.983
	c-8.844,0-16.01,7.166-16.01,16.009C264.842,239.992,272.01,232.826,272.01,223.983z M272.01,288.018
	c0-8.838-7.172-16.008-16.01-16.008C256,280.847,263.16,288.018,272.01,288.018z M272.01,256c0,8.838,7.159,16.01,16.008,16.01
	C288.018,263.171,280.847,256,272.01,256z M256,239.992c0,8.838,7.16,16.008,16.01,16.008
	C272.01,247.162,264.838,239.992,256,239.992z M288.018,239.992c-8.842,0-16.008,7.165-16.008,16.008
	C280.852,256,288.018,248.835,288.018,239.992z M256,239.992c-8.841,0-16.008,7.165-16.008,16.008
	C248.833,256,256,248.835,256,239.992z M256,272.01c8.838,0,16.01-7.172,16.01-16.01C263.166,256,256,263.16,256,272.01z
	 M239.992,256c0,8.838,7.165,16.01,16.008,16.01C256,263.167,248.835,256,239.992,256z"/>
</svg>
