<?xml version="1.0" encoding="utf-8"?>
<!-- Generator: Adobe Illustrator 16.0.0, SVG Export Plug-In . SVG Version: 6.00 Build 0)  -->
<!DOCTYPE svg PUBLIC "-//W3C//DTD SVG 1.1//EN" "http://www.w3.org/Graphics/SVG/1.1/DTD/svg11.dtd">
<svg version="1.1" id="Layer_1" xmlns="http://www.w3.org/2000/svg" xmlns:xlink="http://www.w3.org/1999/xlink" x="0px" y="0px"
	 width="317px" height="98px" viewBox="44.964 19.703 317 98" enable-background="new 44.964 19.703 317 98" xml:space="preserve">
<g>
	<path fill="#FFFFFF" d="M44.95,44.518c0,13.352,10.817,24.186,24.185,24.186C69.135,55.351,58.302,44.518,44.95,44.518z
		 M69.135,20.335c0,13.351,10.817,24.184,24.184,24.184C93.319,31.167,82.487,20.335,69.135,20.335z M44.95,92.888
		c13.357,0,24.185-10.827,24.185-24.184C55.778,68.704,44.95,79.529,44.95,92.888z M69.135,117.071
		c13.356,0,24.184-10.827,24.184-24.184C79.963,92.888,69.135,103.713,69.135,117.071z M117.505,20.335
		c-13.359,0-24.186,10.825-24.186,24.184C106.679,44.518,117.505,33.694,117.505,20.335z M117.505,117.071
		c0-13.353-10.833-24.184-24.186-24.184C93.319,106.238,104.137,117.071,117.505,117.071z M117.505,68.704
		c0,13.351,10.816,24.184,24.184,24.184C141.689,79.537,130.855,68.704,117.505,68.704z M93.319,44.518
		c0,13.352,10.818,24.186,24.186,24.186C117.505,55.351,106.672,44.518,93.319,44.518z M141.689,44.518
		c-13.359,0-24.184,10.825-24.184,24.186C130.863,68.704,141.689,57.878,141.689,44.518z M93.319,44.518
		c-13.356,0-24.184,10.825-24.184,24.186C82.491,68.704,93.319,57.878,93.319,44.518z M93.319,92.888
		c13.353,0,24.186-10.833,24.186-24.184C104.146,68.704,93.319,79.521,93.319,92.888z M69.135,68.704
		c0,13.351,10.825,24.184,24.184,24.184C93.319,79.529,82.494,68.704,69.135,68.704z"/>
	<g>
		<path fill="#FFFFFF" d="M198.876,61.449h-7.892v30.856h-3.052V61.449h-6.227v-1.788l6.227-1.141v-2.589
			c0-4.11,0.757-7.126,2.266-9.048c1.511-1.922,3.981-2.882,7.414-2.882c1.85,0,3.699,0.277,5.549,0.832l-0.709,2.651
			c-1.645-0.514-3.277-0.771-4.902-0.771c-2.385,0-4.074,0.704-5.071,2.112c-0.997,1.408-1.495,3.694-1.495,6.859V58.8h7.892V61.449
			z"/>
		<path fill="#FFFFFF" d="M218.881,92.923c-4.868,0-8.666-1.501-11.39-4.501c-2.723-3.001-4.086-7.203-4.086-12.608
			c0-5.344,1.315-9.621,3.946-12.838s6.176-4.824,10.636-4.824c3.945,0,7.059,1.377,9.341,4.132
			c2.28,2.754,3.421,6.493,3.421,11.221v2.466h-24.137c0.042,4.604,1.116,8.117,3.222,10.543c2.107,2.425,5.122,3.637,9.047,3.637
			c1.911,0,3.593-0.133,5.042-0.4c1.448-0.267,3.281-0.843,5.501-1.727v2.775c-1.892,0.821-3.638,1.383-5.241,1.678
			C222.582,92.773,220.812,92.923,218.881,92.923z M217.989,60.864c-3.227,0-5.816,1.063-7.769,3.19
			c-1.954,2.126-3.093,5.193-3.421,9.2h20.713c0-3.883-0.843-6.92-2.527-9.107C223.302,61.958,220.969,60.864,217.989,60.864z"/>
		<path fill="#FFFFFF" d="M260.775,83.582c0,3-1.141,5.306-3.421,6.919c-2.282,1.615-5.519,2.422-9.713,2.422
			c-4.48,0-8.035-0.689-10.666-2.066v-3.299c3.371,1.686,6.926,2.528,10.666,2.528c3.311,0,5.822-0.551,7.538-1.65
			c1.716-1.098,2.573-2.562,2.573-4.392c0-1.687-0.683-3.103-2.05-4.254c-1.365-1.15-3.612-2.281-6.734-3.391
			c-3.351-1.213-5.704-2.257-7.059-3.13c-1.356-0.873-2.38-1.859-3.065-2.959c-0.689-1.099-1.035-2.44-1.035-4.022
			c0-2.508,1.055-4.489,3.162-5.949c2.105-1.459,5.049-2.188,8.83-2.188c3.617,0,7.049,0.679,10.296,2.035l-1.141,2.774
			c-3.288-1.356-6.34-2.035-9.155-2.035c-2.733,0-4.902,0.453-6.505,1.357s-2.404,2.157-2.404,3.76c0,1.747,0.623,3.145,1.866,4.192
			c1.241,1.048,3.673,2.219,7.29,3.514c3.021,1.09,5.22,2.069,6.597,2.943c1.377,0.875,2.41,1.865,3.099,2.976
			C260.432,80.776,260.775,82.082,260.775,83.582z"/>
		<path fill="#FFFFFF" d="M278.252,90.209c1.935,0,3.619-0.164,5.058-0.493v2.467c-1.479,0.493-3.186,0.74-5.117,0.74
			c-2.959,0-5.143-0.792-6.549-2.374c-1.408-1.583-2.115-4.069-2.115-7.461V61.449h-4.963v-1.788l4.963-1.386l1.544-7.584h1.569
			v8.107h9.835v2.651h-9.835v21.207c0,2.569,0.454,4.47,1.356,5.702C274.902,89.595,276.32,90.209,278.252,90.209z"/>
		<path fill="#FFFFFF" d="M290.122,49.489c0-1.973,0.647-2.959,1.942-2.959c0.637,0,1.136,0.258,1.496,0.77
			c0.359,0.514,0.538,1.244,0.538,2.189c0,0.925-0.179,1.653-0.538,2.188c-0.36,0.534-0.859,0.802-1.496,0.802
			C290.769,52.479,290.122,51.482,290.122,49.489z M293.605,92.306h-3.052V58.799h3.052V92.306z"/>
		<path fill="#FFFFFF" d="M312.163,92.306l-12.947-33.507h3.142l8.663,22.779c1.15,2.918,2.013,5.467,2.589,7.645h0.186
			c0.843-2.795,1.705-5.363,2.589-7.706l8.662-22.718h3.145l-12.945,33.507H312.163z"/>
		<path fill="#FFFFFF" d="M333.371,49.489c0-1.973,0.646-2.959,1.942-2.959c0.637,0,1.136,0.258,1.495,0.77
			c0.36,0.514,0.539,1.244,0.539,2.189c0,0.925-0.179,1.653-0.539,2.188c-0.359,0.534-0.858,0.802-1.495,0.802
			C334.017,52.479,333.371,51.482,333.371,49.489z M336.854,92.306h-3.052V58.799h3.052V92.306z"/>
		<path fill="#FFFFFF" d="M356.922,90.209c1.932,0,3.616-0.164,5.056-0.493v2.467c-1.479,0.493-3.186,0.74-5.117,0.74
			c-2.959,0-5.142-0.792-6.55-2.374c-1.407-1.583-2.112-4.069-2.112-7.461V61.449h-4.963v-1.788l4.963-1.386l1.542-7.584h1.571
			v8.107h9.834v2.651h-9.834v21.207c0,2.569,0.452,4.47,1.356,5.702C353.572,89.595,354.99,90.209,356.922,90.209z"/>
	</g>
</g>
</svg>
