<?xml version="1.0" encoding="utf-8"?>
<!-- Generator: Adobe Illustrator 16.0.0, SVG Export Plug-In . SVG Version: 6.00 Build 0)  -->
<!DOCTYPE svg PUBLIC "-//W3C//DTD SVG 1.1//EN" "http://www.w3.org/Graphics/SVG/1.1/DTD/svg11.dtd">
<svg version="1.1" id="Layer_1" xmlns="http://www.w3.org/2000/svg" xmlns:xlink="http://www.w3.org/1999/xlink" x="0px" y="0px"
	 width="394.927px" height="138.406px" viewBox="0 0 394.927 138.406" enable-background="new 0 0 394.927 138.406"
	 xml:space="preserve">
<path fill="#FFFFFF" d="M46.364,46.358c0,12.689,10.28,22.985,22.985,22.985C69.349,56.653,59.054,46.358,46.364,46.358z
	 M69.349,23.374c0,12.689,10.281,22.985,22.985,22.985C92.334,33.669,82.039,23.374,69.349,23.374z M46.364,92.328
	c12.694,0,22.985-10.289,22.985-22.984C56.655,69.344,46.364,79.633,46.364,92.328z M69.349,115.313
	c12.694,0,22.985-10.289,22.985-22.985C79.64,92.328,69.349,102.616,69.349,115.313z M115.32,23.374
	c-12.696,0-22.986,10.288-22.986,22.985C105.031,46.358,115.32,36.071,115.32,23.374z M115.32,115.313
	c0-12.69-10.296-22.985-22.986-22.985C92.334,105.018,102.615,115.313,115.32,115.313z M115.32,69.344
	c0,12.688,10.279,22.984,22.984,22.984C138.304,79.64,128.008,69.344,115.32,69.344z M92.334,46.358
	c0,12.689,10.281,22.985,22.986,22.985C115.32,56.653,105.024,46.358,92.334,46.358z M138.304,46.358
	c-12.696,0-22.984,10.288-22.984,22.985C128.015,69.344,138.304,59.055,138.304,46.358z M92.334,46.358
	c-12.694,0-22.985,10.288-22.985,22.985C82.043,69.344,92.334,59.055,92.334,46.358z M92.334,92.328
	c12.69,0,22.986-10.296,22.986-22.984C102.624,69.344,92.334,79.624,92.334,92.328z M69.349,69.344
	c0,12.688,10.288,22.984,22.985,22.984C92.334,79.633,82.046,69.344,69.349,69.344z"/>
<g>
	<path fill="#FFFFFF" d="M192.654,62.449h-7.5v29.326h-2.9V62.449h-5.918V60.75l5.918-1.084v-2.461c0-3.906,0.718-6.772,2.153-8.599
		c1.436-1.826,3.784-2.739,7.046-2.739c1.758,0,3.516,0.264,5.273,0.791l-0.674,2.52c-1.562-0.488-3.115-0.732-4.658-0.732
		c-2.266,0-3.872,0.669-4.819,2.007c-0.947,1.338-1.421,3.511-1.421,6.519v2.959h7.5V62.449z"/>
	<path fill="#FFFFFF" d="M211.667,92.361c-4.628,0-8.237-1.426-10.825-4.277s-3.882-6.846-3.882-11.982
		c0-5.078,1.25-9.145,3.75-12.202c2.5-3.057,5.869-4.585,10.107-4.585c3.75,0,6.708,1.309,8.876,3.926
		c2.168,2.618,3.252,6.172,3.252,10.664v2.344h-22.939c0.039,4.375,1.06,7.715,3.062,10.02s4.868,3.457,8.598,3.457
		c1.816,0,3.414-0.127,4.791-0.381s3.119-0.801,5.229-1.641v2.637c-1.797,0.781-3.457,1.314-4.98,1.597
		S213.503,92.361,211.667,92.361z M210.818,61.893c-3.066,0-5.527,1.011-7.383,3.032s-2.939,4.937-3.252,8.745h19.687
		c0-3.691-0.801-6.577-2.402-8.657S213.65,61.893,210.818,61.893z"/>
	<path fill="#FFFFFF" d="M251.482,83.484c0,2.852-1.084,5.044-3.252,6.577c-2.168,1.534-5.244,2.3-9.229,2.3
		c-4.258,0-7.637-0.654-10.137-1.963v-3.135c3.203,1.602,6.582,2.402,10.137,2.402c3.145,0,5.533-0.522,7.164-1.567
		c1.631-1.044,2.445-2.437,2.445-4.175c0-1.602-0.648-2.949-1.947-4.043s-3.434-2.168-6.402-3.223
		c-3.184-1.152-5.42-2.143-6.709-2.974c-1.289-0.83-2.26-1.768-2.914-2.812c-0.654-1.044-0.982-2.319-0.982-3.823
		c0-2.383,1.002-4.267,3.004-5.654c2.002-1.387,4.799-2.08,8.393-2.08c3.438,0,6.699,0.645,9.785,1.934l-1.084,2.637
		c-3.125-1.289-6.025-1.934-8.701-1.934c-2.598,0-4.658,0.43-6.182,1.289c-1.523,0.86-2.285,2.051-2.285,3.574
		c0,1.66,0.592,2.988,1.773,3.984s3.49,2.109,6.928,3.34c2.871,1.035,4.961,1.968,6.27,2.798c1.309,0.831,2.291,1.772,2.945,2.827
		S251.482,82.059,251.482,83.484z"/>
	<path fill="#FFFFFF" d="M268.093,89.783c1.836,0,3.438-0.156,4.805-0.469v2.344c-1.406,0.469-3.027,0.703-4.863,0.703
		c-2.812,0-4.887-0.752-6.225-2.256s-2.008-3.867-2.008-7.09V62.449h-4.717V60.75l4.717-1.318l1.465-7.207h1.494v7.705h9.346v2.52
		h-9.346v20.156c0,2.441,0.43,4.248,1.289,5.42S266.257,89.783,268.093,89.783z"/>
	<path fill="#FFFFFF" d="M279.373,51.082c0-1.875,0.615-2.812,1.846-2.812c0.605,0,1.08,0.245,1.422,0.732
		c0.342,0.488,0.512,1.182,0.512,2.08c0,0.879-0.17,1.572-0.512,2.08c-0.342,0.508-0.816,0.762-1.422,0.762
		C279.988,53.924,279.373,52.977,279.373,51.082z M282.683,91.775h-2.9V59.93h2.9V91.775z"/>
	<path fill="#FFFFFF" d="M300.32,91.775L288.015,59.93h2.988l8.232,21.65c1.094,2.773,1.914,5.195,2.461,7.266h0.176
		c0.801-2.656,1.621-5.098,2.461-7.324l8.232-21.592h2.988L303.25,91.775H300.32z"/>
	<path fill="#FFFFFF" d="M320.476,51.082c0-1.875,0.615-2.812,1.846-2.812c0.605,0,1.08,0.245,1.422,0.732
		c0.342,0.488,0.512,1.182,0.512,2.08c0,0.879-0.17,1.572-0.512,2.08c-0.342,0.508-0.816,0.762-1.422,0.762
		C321.091,53.924,320.476,52.977,320.476,51.082z M323.787,91.775h-2.9V59.93h2.9V91.775z"/>
	<path fill="#FFFFFF" d="M342.859,89.783c1.836,0,3.438-0.156,4.805-0.469v2.344c-1.406,0.469-3.027,0.703-4.863,0.703
		c-2.812,0-4.887-0.752-6.225-2.256s-2.008-3.867-2.008-7.09V62.449h-4.717V60.75l4.717-1.318l1.465-7.207h1.494v7.705h9.346v2.52
		h-9.346v20.156c0,2.441,0.43,4.248,1.289,5.42S341.023,89.783,342.859,89.783z"/>
</g>
</svg>
