<?xml version="1.0" encoding="utf-8"?>
<!-- Generator: Adobe Illustrator 16.0.0, SVG Export Plug-In . SVG Version: 6.00 Build 0)  -->
<!DOCTYPE svg PUBLIC "-//W3C//DTD SVG 1.1//EN" "http://www.w3.org/Graphics/SVG/1.1/DTD/svg11.dtd">
<svg version="1.1" id="Layer_1" xmlns="http://www.w3.org/2000/svg" xmlns:xlink="http://www.w3.org/1999/xlink" x="0px" y="0px"
	 width="512px" height="512px" viewBox="0 0 512 512" enable-background="new 0 0 512 512" xml:space="preserve">
<path fill="#FFFFFF" d="M1.263,128.631C1.263,198.95,58.23,256,128.631,256C128.631,185.682,71.581,128.631,1.263,128.631z
	 M128.631,1.263c0,70.318,56.968,127.369,127.369,127.369C256,58.313,198.95,1.263,128.631,1.263z M1.263,383.369
	c70.343,0,127.369-57.018,127.369-127.369C58.289,256,1.263,313.018,1.263,383.369z M128.631,510.737
	C198.974,510.737,256,453.72,256,383.369C185.657,383.369,128.631,440.386,128.631,510.737z M383.369,1.263
	C313.017,1.263,256,58.271,256,128.631C326.352,128.631,383.369,71.623,383.369,1.263z M383.369,510.737
	c0-70.317-57.052-127.368-127.369-127.368C256,453.686,312.968,510.737,383.369,510.737z M383.369,256
	c0,70.316,56.967,127.369,127.368,127.369C510.737,313.051,453.686,256,383.369,256z M256,128.631
	C256,198.95,312.968,256,383.369,256C383.369,185.682,326.317,128.631,256,128.631z M510.737,128.631
	c-70.353,0-127.368,57.009-127.368,127.369C453.72,256,510.737,198.991,510.737,128.631z M256,128.631
	c-70.343,0-127.369,57.009-127.369,127.369C198.974,256,256,198.991,256,128.631z M256,383.369
	c70.317,0,127.369-57.053,127.369-127.369C313.017,256,256,312.968,256,383.369z M128.631,256
	c0,70.316,57.009,127.369,127.369,127.369C256,313.018,198.991,256,128.631,256z"/>
</svg>
